# xmcd
#
# Track frame offsets:
# 150
# 24493
# 42659
# 61720
# 74159
# 101747
# 115245
# 129720
# 150670
# 165491
# 179857
# 196229
# 212304
# 235186
# 250481
# 268830
# 283692
# 297161
# 314401
#
# Disc length: 4426 seconds
#
# Revision: 0
# Processed by: cddbd v1.4PL0 Copyright (c) Steve Scherf et al.
# Submitted via: Axialis_AX_CDPlayer 2.6
#
DISCID=27114813
DTITLE=Various Artist - Merlefest Live!
DYEAR=1900
DGENRE=
TTITLE0=The're Gonna Miss Me When I'm Gone
TTITLE1=Bury Me Beneath The Willow
TTITLE2=Doc's Medley: Any Way You Want Me/Blue Suede Shoes/Tutti Frutti/Whol
TTITLE2=e \nLot of Shakin' Goin' On
TTITLE3=Sittin' On Top Of The World
TTITLE4=You'll Never Leave Harlan Alive
TTITLE5=Lonesome Pine
TTITLE6=A Mountaineer is Always Free
TTITLE7=A Good Woman's Love
TTITLE8=Blue Moon of Kentucky
TTITLE9=Careless Love
TTITLE10=Cattle Call
TTITLE11=Midnight Moonlight
TTITLE12=Sweet Gerogia Brown
TTITLE13=Summertime
TTITLE14=Patrick Meets the Brickbats
TTITLE15=Shady Grove
TTITLE16=Paul and Silas
TTITLE17=Shake Rattle and Roll
TTITLE18=Amazing Grace
EXTD=
EXTT0=
EXTT1=
EXTT2=
EXTT3=
EXTT4=
EXTT5=
EXTT6=
EXTT7=
EXTT8=
EXTT9=
EXTT10=
EXTT11=
EXTT12=
EXTT13=
EXTT14=
EXTT15=
EXTT16=
EXTT17=
EXTT18=
PLAYORDER=
